<?xml version="1.0" encoding="UTF-8" standalone="no"?>
<svg
   xmlns:dc="http://purl.org/dc/elements/1.1/"
   xmlns:cc="http://creativecommons.org/ns#"
   xmlns:rdf="http://www.w3.org/1999/02/22-rdf-syntax-ns#"
   xmlns:svg="http://www.w3.org/2000/svg"
   xmlns="http://www.w3.org/2000/svg"
   xmlns:xlink="http://www.w3.org/1999/xlink"
   xmlns:sodipodi="http://sodipodi.sourceforge.net/DTD/sodipodi-0.dtd"
   xmlns:inkscape="http://www.inkscape.org/namespaces/inkscape"
   viewBox="0 0 2267.72 1511.8134"
   height="1511.8134"
   width="2267.72"
   xml:space="preserve"
   id="svg2"
   version="1.1"
   sodipodi:docname="plan_socle_gobelets_ia_nim_jetons.svg"
   inkscape:version="0.92.2 5c3e80d, 2017-08-06"><sodipodi:namedview
     pagecolor="#ffffff"
     bordercolor="#666666"
     borderopacity="1"
     objecttolerance="10"
     gridtolerance="10"
     guidetolerance="10"
     inkscape:pageopacity="0"
     inkscape:pageshadow="2"
     inkscape:window-width="1440"
     inkscape:window-height="792"
     id="namedview2795"
     showgrid="false"
     showguides="false"
     inkscape:zoom="0.33116964"
     inkscape:cx="1133.86"
     inkscape:cy="876.6907"
     inkscape:window-x="0"
     inkscape:window-y="1"
     inkscape:window-maximized="1"
     inkscape:current-layer="svg2" /><metadata
     id="metadata8"><rdf:RDF><cc:Work
         rdf:about=""><dc:format>image/svg+xml</dc:format><dc:type
           rdf:resource="http://purl.org/dc/dcmitype/StillImage" /><dc:title /></cc:Work></rdf:RDF></metadata><defs
     id="defs6"><clipPath
       id="clipPath24"
       clipPathUnits="userSpaceOnUse"><path
         id="path22"
         d="M 0,1133.86 H 1700.79 V 0 H 0 Z" /></clipPath><clipPath
       id="clipPath144"
       clipPathUnits="userSpaceOnUse"><path
         id="path142"
         d="M 0,1133.86 H 1700.79 V 0 H 0 Z" /></clipPath><clipPath
       id="clipPath160"
       clipPathUnits="userSpaceOnUse"><path
         id="path158"
         d="M 0,1133.86 H 1700.79 V 0 H 0 Z" /></clipPath><clipPath
       id="clipPath176"
       clipPathUnits="userSpaceOnUse"><path
         id="path174"
         d="M 0,1133.86 H 1700.79 V 0 H 0 Z" /></clipPath><clipPath
       id="clipPath192"
       clipPathUnits="userSpaceOnUse"><path
         id="path190"
         d="M 0,1133.86 H 1700.79 V 0 H 0 Z" /></clipPath><clipPath
       id="clipPath208"
       clipPathUnits="userSpaceOnUse"><path
         id="path206"
         d="M 0,1133.86 H 1700.79 V 0 H 0 Z" /></clipPath><clipPath
       id="clipPath224"
       clipPathUnits="userSpaceOnUse"><path
         id="path222"
         d="M 0,1133.86 H 1700.79 V 0 H 0 Z" /></clipPath><clipPath
       id="clipPath240"
       clipPathUnits="userSpaceOnUse"><path
         id="path238"
         d="M 0,1133.86 H 1700.79 V 0 H 0 Z" /></clipPath><clipPath
       id="clipPath256"
       clipPathUnits="userSpaceOnUse"><path
         id="path254"
         d="M 0,1133.86 H 1700.79 V 0 H 0 Z" /></clipPath><clipPath
       id="clipPath272"
       clipPathUnits="userSpaceOnUse"><path
         id="path270"
         d="M 0,1133.86 H 1700.79 V 0 H 0 Z" /></clipPath><clipPath
       id="clipPath288"
       clipPathUnits="userSpaceOnUse"><path
         id="path286"
         d="M 0,1133.86 H 1700.79 V 0 H 0 Z" /></clipPath><clipPath
       id="clipPath304"
       clipPathUnits="userSpaceOnUse"><path
         id="path302"
         d="M 0,1133.86 H 1700.79 V 0 H 0 Z" /></clipPath><clipPath
       id="clipPath320"
       clipPathUnits="userSpaceOnUse"><path
         id="path318"
         d="M 0,1133.86 H 1700.79 V 0 H 0 Z" /></clipPath><clipPath
       id="clipPath336"
       clipPathUnits="userSpaceOnUse"><path
         id="path334"
         d="M 0,1133.86 H 1700.79 V 0 H 0 Z" /></clipPath><clipPath
       id="clipPath352"
       clipPathUnits="userSpaceOnUse"><path
         id="path350"
         d="M 0,1133.86 H 1700.79 V 0 H 0 Z" /></clipPath><clipPath
       id="clipPath368"
       clipPathUnits="userSpaceOnUse"><path
         id="path366"
         d="M 0,1133.86 H 1700.79 V 0 H 0 Z" /></clipPath><clipPath
       id="clipPath384"
       clipPathUnits="userSpaceOnUse"><path
         id="path382"
         d="M 0,1133.86 H 1700.79 V 0 H 0 Z" /></clipPath><clipPath
       id="clipPath400"
       clipPathUnits="userSpaceOnUse"><path
         id="path398"
         d="M 0,1133.86 H 1700.79 V 0 H 0 Z" /></clipPath><clipPath
       id="clipPath416"
       clipPathUnits="userSpaceOnUse"><path
         id="path414"
         d="M 0,1133.86 H 1700.79 V 0 H 0 Z" /></clipPath><clipPath
       id="clipPath432"
       clipPathUnits="userSpaceOnUse"><path
         id="path430"
         d="M 0,1133.86 H 1700.79 V 0 H 0 Z" /></clipPath><clipPath
       id="clipPath448"
       clipPathUnits="userSpaceOnUse"><path
         id="path446"
         d="M 0,1133.86 H 1700.79 V 0 H 0 Z" /></clipPath><clipPath
       id="clipPath464"
       clipPathUnits="userSpaceOnUse"><path
         id="path462"
         d="M 0,1133.86 H 1700.79 V 0 H 0 Z" /></clipPath><clipPath
       id="clipPath480"
       clipPathUnits="userSpaceOnUse"><path
         id="path478"
         d="M 0,1133.86 H 1700.79 V 0 H 0 Z" /></clipPath><clipPath
       id="clipPath496"
       clipPathUnits="userSpaceOnUse"><path
         id="path494"
         d="M 0,1133.86 H 1700.79 V 0 H 0 Z" /></clipPath><clipPath
       id="clipPath512"
       clipPathUnits="userSpaceOnUse"><path
         id="path510"
         d="M 0,1133.86 H 1700.79 V 0 H 0 Z" /></clipPath><clipPath
       id="clipPath528"
       clipPathUnits="userSpaceOnUse"><path
         id="path526"
         d="M 0,1133.86 H 1700.79 V 0 H 0 Z" /></clipPath><clipPath
       id="clipPath544"
       clipPathUnits="userSpaceOnUse"><path
         id="path542"
         d="M 0,1133.86 H 1700.79 V 0 H 0 Z" /></clipPath><clipPath
       id="clipPath560"
       clipPathUnits="userSpaceOnUse"><path
         id="path558"
         d="M 0,1133.86 H 1700.79 V 0 H 0 Z" /></clipPath><clipPath
       id="clipPath576"
       clipPathUnits="userSpaceOnUse"><path
         id="path574"
         d="M 0,1133.86 H 1700.79 V 0 H 0 Z" /></clipPath><clipPath
       id="clipPath592"
       clipPathUnits="userSpaceOnUse"><path
         id="path590"
         d="M 0,1133.86 H 1700.79 V 0 H 0 Z" /></clipPath><clipPath
       id="clipPath608"
       clipPathUnits="userSpaceOnUse"><path
         id="path606"
         d="M 0,1133.86 H 1700.79 V 0 H 0 Z" /></clipPath><clipPath
       id="clipPath624"
       clipPathUnits="userSpaceOnUse"><path
         id="path622"
         d="M 0,1133.86 H 1700.79 V 0 H 0 Z" /></clipPath><clipPath
       id="clipPath640"
       clipPathUnits="userSpaceOnUse"><path
         id="path638"
         d="M 0,1133.86 H 1700.79 V 0 H 0 Z" /></clipPath><clipPath
       id="clipPath656"
       clipPathUnits="userSpaceOnUse"><path
         id="path654"
         d="M 0,1133.86 H 1700.79 V 0 H 0 Z" /></clipPath><clipPath
       id="clipPath672"
       clipPathUnits="userSpaceOnUse"><path
         id="path670"
         d="M 0,1133.86 H 1700.79 V 0 H 0 Z" /></clipPath><clipPath
       id="clipPath688"
       clipPathUnits="userSpaceOnUse"><path
         id="path686"
         d="M 0,1133.86 H 1700.79 V 0 H 0 Z" /></clipPath><clipPath
       id="clipPath704"
       clipPathUnits="userSpaceOnUse"><path
         id="path702"
         d="M 0,1133.86 H 1700.79 V 0 H 0 Z" /></clipPath><clipPath
       id="clipPath720"
       clipPathUnits="userSpaceOnUse"><path
         id="path718"
         d="M 0,1133.86 H 1700.79 V 0 H 0 Z" /></clipPath><clipPath
       id="clipPath736"
       clipPathUnits="userSpaceOnUse"><path
         id="path734"
         d="M 0,1133.86 H 1700.79 V 0 H 0 Z" /></clipPath><clipPath
       id="clipPath752"
       clipPathUnits="userSpaceOnUse"><path
         id="path750"
         d="M 0,1133.86 H 1700.79 V 0 H 0 Z" /></clipPath><clipPath
       id="clipPath768"
       clipPathUnits="userSpaceOnUse"><path
         id="path766"
         d="M 0,1133.86 H 1700.79 V 0 H 0 Z" /></clipPath><clipPath
       id="clipPath784"
       clipPathUnits="userSpaceOnUse"><path
         id="path782"
         d="M 0,1133.86 H 1700.79 V 0 H 0 Z" /></clipPath><clipPath
       id="clipPath800"
       clipPathUnits="userSpaceOnUse"><path
         id="path798"
         d="M 0,1133.86 H 1700.79 V 0 H 0 Z" /></clipPath><clipPath
       id="clipPath816"
       clipPathUnits="userSpaceOnUse"><path
         id="path814"
         d="M 0,1133.86 H 1700.79 V 0 H 0 Z" /></clipPath><clipPath
       id="clipPath832"
       clipPathUnits="userSpaceOnUse"><path
         id="path830"
         d="M 0,1133.86 H 1700.79 V 0 H 0 Z" /></clipPath><clipPath
       id="clipPath848"
       clipPathUnits="userSpaceOnUse"><path
         id="path846"
         d="M 0,1133.86 H 1700.79 V 0 H 0 Z" /></clipPath><clipPath
       id="clipPath864"
       clipPathUnits="userSpaceOnUse"><path
         id="path862"
         d="M 0,1133.86 H 1700.79 V 0 H 0 Z" /></clipPath><clipPath
       id="clipPath880"
       clipPathUnits="userSpaceOnUse"><path
         id="path878"
         d="M 0,1133.86 H 1700.79 V 0 H 0 Z" /></clipPath></defs><g
     id="g3725"
     inkscape:tile-cx="202.78852"
     inkscape:tile-cy="93.059983"
     inkscape:tile-w="279.8588"
     inkscape:tile-h="88.142441"
     inkscape:tile-x0="62.859117"
     inkscape:tile-y0="48.988763"><g
       id="g3688"><g
         id="g130"
         transform="matrix(2.0253318,0,0,-2.0253318,149.98889,93.059982)"><path
           inkscape:connector-curvature="0"
           d="m 0,0 c 0,-11.741 -9.519,-21.26 -21.26,-21.26 -11.741,0 -21.26,9.519 -21.26,21.26 0,11.742 9.519,21.26 21.26,21.26 C -9.519,21.26 0,11.742 0,0 Z"
           style="fill:none;stroke:#e30613;stroke-width:1;stroke-linecap:butt;stroke-linejoin:miter;stroke-miterlimit:10;stroke-dasharray:none;stroke-opacity:1"
           id="path132" /></g><text
         style="font-variant:normal;font-weight:bold;font-stretch:normal;font-size:48.60796356px;font-family:'Myriad Pro';-inkscape-font-specification:MyriadPro-Bold;writing-mode:lr-tb;fill:#1d1d1b;fill-opacity:1;fill-rule:nonzero;stroke:none;stroke-width:2.02533174"
         id="text136"
         x="88.951561"
         y="110.77768"><tspan
           x="88.951561"
           y="110.77768"
           id="tspan134"
           style="stroke-width:2.02533174">1</tspan></text>
</g><g
       transform="translate(0,0.32041258)"
       id="g3696"><g
         id="g138"
         transform="matrix(2.0253318,0,0,-2.0253318,-2304.9984,2237.0586)"><g
           id="g140"
           clip-path="url(#clipPath144)"><g
             id="g146"
             transform="translate(1259.501,1058.7495)"><path
               inkscape:connector-curvature="0"
               d="m 0,0 c 0,-11.741 -9.519,-21.26 -21.26,-21.26 -11.741,0 -21.26,9.519 -21.26,21.26 0,11.742 9.519,21.26 21.26,21.26 C -9.519,21.26 0,11.742 0,0 Z"
               style="fill:none;stroke:#e30613;stroke-width:1;stroke-linecap:butt;stroke-linejoin:miter;stroke-miterlimit:10;stroke-dasharray:none;stroke-opacity:1"
               id="path148" /></g></g></g><text
         style="font-variant:normal;font-weight:bold;font-stretch:normal;font-size:48.60796356px;font-family:'Myriad Pro';-inkscape-font-specification:MyriadPro-Bold;writing-mode:lr-tb;fill:#1d1d1b;fill-opacity:1;fill-rule:nonzero;stroke:none;stroke-width:2.02533174"
         id="text152"
         x="186.12965"
         y="110.77768"><tspan
           x="186.12965"
           y="110.77768"
           id="tspan150"
           style="stroke-width:2.02533174">2</tspan></text>
</g><g
       transform="translate(0,-0.02368742)"
       id="g3704"><g
         id="g154"
         transform="matrix(2.0253318,0,0,-2.0253318,-2303.0913,2237.4027)"><g
           id="g156"
           clip-path="url(#clipPath160)"><g
             id="g162"
             transform="translate(1305.8584,1058.7495)"><path
               inkscape:connector-curvature="0"
               d="m 0,0 c 0,-11.741 -9.519,-21.26 -21.26,-21.26 -11.741,0 -21.26,9.519 -21.26,21.26 0,11.742 9.519,21.26 21.26,21.26 C -9.519,21.26 0,11.742 0,0 Z"
               style="fill:none;stroke:#e30613;stroke-width:1;stroke-linecap:butt;stroke-linejoin:miter;stroke-miterlimit:10;stroke-dasharray:none;stroke-opacity:1"
               id="path164" /></g></g></g><text
         style="font-variant:normal;font-weight:bold;font-stretch:normal;font-size:48.60796356px;font-family:'Myriad Pro';-inkscape-font-specification:MyriadPro-Bold;writing-mode:lr-tb;fill:#1d1d1b;fill-opacity:1;fill-rule:nonzero;stroke:none;stroke-width:2.02533174"
         id="text168"
         x="282.04446"
         y="110.77768"><tspan
           x="282.04446"
           y="110.77768"
           id="tspan166"
           style="stroke-width:2.02533174">3</tspan></text>
</g></g><text
     style="font-variant:normal;font-weight:normal;font-stretch:normal;font-size:16px;font-family:'Myriad Pro';-inkscape-font-specification:MyriadPro-Regular;writing-mode:lr-tb;fill:#1d1d1b;fill-opacity:1;fill-rule:nonzero;stroke:none;stroke-width:1.33333325"
     id="text894"
     x="2093.0532"
     y="1420.2013"><tspan
       x="2093.0532 2101.9333 2110.7173 2114.4612 2119.6934 2123.0852 2126.3972 2129.7893 2138.6372 2143.7893 2151.3733 2159.0693 2167.8853 2172.9573"
       y="1420.2013"
       id="tspan890"
       style="stroke-width:1.33333325">noir : gravure</tspan><tspan
       x="2093.0532 2098.1252 2106.9092 2115.7253 2124.6692 2132.6853 2136.0774 2139.3894 2142.7812 2151.8052 2159.8213 2166.8933 2175.6772 2184.4934 2193.5974"
       y="1439.4012"
       id="tspan892"
       style="stroke-width:1.33333325">rouge : découpe</tspan></text>
<use
     x="0"
     y="0"
     inkscape:tiled-clone-of="#g3725"
     xlink:href="#g3725"
     id="use4727" /><use
     x="0"
     y="0"
     inkscape:tiled-clone-of="#g3725"
     xlink:href="#g3725"
     transform="translate(0,88.142441)"
     id="use4729" /><use
     x="0"
     y="0"
     inkscape:tiled-clone-of="#g3725"
     xlink:href="#g3725"
     transform="translate(0,176.28488)"
     id="use4731" /><use
     x="0"
     y="0"
     inkscape:tiled-clone-of="#g3725"
     xlink:href="#g3725"
     transform="translate(0,264.42732)"
     id="use4733" /><use
     x="0"
     y="0"
     inkscape:tiled-clone-of="#g3725"
     xlink:href="#g3725"
     transform="translate(0,352.56976)"
     id="use4735" /><use
     x="0"
     y="0"
     inkscape:tiled-clone-of="#g3725"
     xlink:href="#g3725"
     transform="translate(0,440.71221)"
     id="use4737" /><use
     x="0"
     y="0"
     inkscape:tiled-clone-of="#g3725"
     xlink:href="#g3725"
     transform="translate(0,528.85465)"
     id="use4739" /><use
     x="0"
     y="0"
     inkscape:tiled-clone-of="#g3725"
     xlink:href="#g3725"
     transform="translate(0,616.99709)"
     id="use4741" /><use
     x="0"
     y="0"
     inkscape:tiled-clone-of="#g3725"
     xlink:href="#g3725"
     transform="translate(0,705.13953)"
     id="use4743" /><use
     x="0"
     y="0"
     inkscape:tiled-clone-of="#g3725"
     xlink:href="#g3725"
     transform="translate(0,793.28197)"
     id="use4745" /><use
     x="0"
     y="0"
     inkscape:tiled-clone-of="#g3725"
     xlink:href="#g3725"
     transform="translate(0,881.42441)"
     id="use4747" /><use
     x="0"
     y="0"
     inkscape:tiled-clone-of="#g3725"
     xlink:href="#g3725"
     transform="translate(0,969.56685)"
     id="use4749" /><use
     x="0"
     y="0"
     inkscape:tiled-clone-of="#g3725"
     xlink:href="#g3725"
     transform="translate(0,1057.7093)"
     id="use4751" /><use
     x="0"
     y="0"
     inkscape:tiled-clone-of="#g3725"
     xlink:href="#g3725"
     transform="translate(0,1145.8517)"
     id="use4753" /><use
     x="0"
     y="0"
     inkscape:tiled-clone-of="#g3725"
     xlink:href="#g3725"
     transform="translate(0,1233.9942)"
     id="use4755" /><use
     x="0"
     y="0"
     inkscape:tiled-clone-of="#g3725"
     xlink:href="#g3725"
     transform="translate(279.8588)"
     id="use4757" /><use
     x="0"
     y="0"
     inkscape:tiled-clone-of="#g3725"
     xlink:href="#g3725"
     transform="translate(279.8588,88.142441)"
     id="use4759" /><use
     x="0"
     y="0"
     inkscape:tiled-clone-of="#g3725"
     xlink:href="#g3725"
     transform="translate(279.8588,176.28488)"
     id="use4761" /><use
     x="0"
     y="0"
     inkscape:tiled-clone-of="#g3725"
     xlink:href="#g3725"
     transform="translate(279.8588,264.42732)"
     id="use4763" /><use
     x="0"
     y="0"
     inkscape:tiled-clone-of="#g3725"
     xlink:href="#g3725"
     transform="translate(279.8588,352.56976)"
     id="use4765" /><use
     x="0"
     y="0"
     inkscape:tiled-clone-of="#g3725"
     xlink:href="#g3725"
     transform="translate(279.8588,440.71221)"
     id="use4767" /><use
     x="0"
     y="0"
     inkscape:tiled-clone-of="#g3725"
     xlink:href="#g3725"
     transform="translate(279.8588,528.85465)"
     id="use4769" /><use
     x="0"
     y="0"
     inkscape:tiled-clone-of="#g3725"
     xlink:href="#g3725"
     transform="translate(279.8588,616.99709)"
     id="use4771" /><use
     x="0"
     y="0"
     inkscape:tiled-clone-of="#g3725"
     xlink:href="#g3725"
     transform="translate(279.8588,705.13953)"
     id="use4773" /><use
     x="0"
     y="0"
     inkscape:tiled-clone-of="#g3725"
     xlink:href="#g3725"
     transform="translate(279.8588,793.28197)"
     id="use4775" /><use
     x="0"
     y="0"
     inkscape:tiled-clone-of="#g3725"
     xlink:href="#g3725"
     transform="translate(279.8588,881.42441)"
     id="use4777" /><use
     x="0"
     y="0"
     inkscape:tiled-clone-of="#g3725"
     xlink:href="#g3725"
     transform="translate(279.8588,969.56685)"
     id="use4779" /><use
     x="0"
     y="0"
     inkscape:tiled-clone-of="#g3725"
     xlink:href="#g3725"
     transform="translate(279.8588,1057.7093)"
     id="use4781" /><use
     x="0"
     y="0"
     inkscape:tiled-clone-of="#g3725"
     xlink:href="#g3725"
     transform="translate(279.8588,1145.8517)"
     id="use4783" /><use
     x="0"
     y="0"
     inkscape:tiled-clone-of="#g3725"
     xlink:href="#g3725"
     transform="translate(279.8588,1233.9942)"
     id="use4785" /><use
     x="0"
     y="0"
     inkscape:tiled-clone-of="#g3725"
     xlink:href="#g3725"
     transform="translate(559.71759)"
     id="use4787" /><use
     x="0"
     y="0"
     inkscape:tiled-clone-of="#g3725"
     xlink:href="#g3725"
     transform="translate(559.71759,88.142441)"
     id="use4789" /><use
     x="0"
     y="0"
     inkscape:tiled-clone-of="#g3725"
     xlink:href="#g3725"
     transform="translate(559.71759,176.28488)"
     id="use4791" /><use
     x="0"
     y="0"
     inkscape:tiled-clone-of="#g3725"
     xlink:href="#g3725"
     transform="translate(559.71759,264.42732)"
     id="use4793" /><use
     x="0"
     y="0"
     inkscape:tiled-clone-of="#g3725"
     xlink:href="#g3725"
     transform="translate(559.71759,352.56976)"
     id="use4795" /><use
     x="0"
     y="0"
     inkscape:tiled-clone-of="#g3725"
     xlink:href="#g3725"
     transform="translate(559.71759,440.71221)"
     id="use4797" /><use
     x="0"
     y="0"
     inkscape:tiled-clone-of="#g3725"
     xlink:href="#g3725"
     transform="translate(559.71759,528.85465)"
     id="use4799" /><use
     x="0"
     y="0"
     inkscape:tiled-clone-of="#g3725"
     xlink:href="#g3725"
     transform="translate(559.71759,616.99709)"
     id="use4801" /><use
     x="0"
     y="0"
     inkscape:tiled-clone-of="#g3725"
     xlink:href="#g3725"
     transform="translate(559.71759,705.13953)"
     id="use4803" /><use
     x="0"
     y="0"
     inkscape:tiled-clone-of="#g3725"
     xlink:href="#g3725"
     transform="translate(559.71759,793.28197)"
     id="use4805" /><use
     x="0"
     y="0"
     inkscape:tiled-clone-of="#g3725"
     xlink:href="#g3725"
     transform="translate(559.71759,881.42441)"
     id="use4807" /><use
     x="0"
     y="0"
     inkscape:tiled-clone-of="#g3725"
     xlink:href="#g3725"
     transform="translate(559.71759,969.56685)"
     id="use4809" /><use
     x="0"
     y="0"
     inkscape:tiled-clone-of="#g3725"
     xlink:href="#g3725"
     transform="translate(559.71759,1057.7093)"
     id="use4811" /><use
     x="0"
     y="0"
     inkscape:tiled-clone-of="#g3725"
     xlink:href="#g3725"
     transform="translate(559.71759,1145.8517)"
     id="use4813" /><use
     x="0"
     y="0"
     inkscape:tiled-clone-of="#g3725"
     xlink:href="#g3725"
     transform="translate(559.71759,1233.9942)"
     id="use4815" /><use
     x="0"
     y="0"
     inkscape:tiled-clone-of="#g3725"
     xlink:href="#g3725"
     transform="translate(839.57639)"
     id="use4817" /><use
     x="0"
     y="0"
     inkscape:tiled-clone-of="#g3725"
     xlink:href="#g3725"
     transform="translate(839.57639,88.142441)"
     id="use4819" /><use
     x="0"
     y="0"
     inkscape:tiled-clone-of="#g3725"
     xlink:href="#g3725"
     transform="translate(839.57639,176.28488)"
     id="use4821" /><use
     x="0"
     y="0"
     inkscape:tiled-clone-of="#g3725"
     xlink:href="#g3725"
     transform="translate(839.57639,264.42732)"
     id="use4823" /><use
     x="0"
     y="0"
     inkscape:tiled-clone-of="#g3725"
     xlink:href="#g3725"
     transform="translate(839.57639,352.56976)"
     id="use4825" /><use
     x="0"
     y="0"
     inkscape:tiled-clone-of="#g3725"
     xlink:href="#g3725"
     transform="translate(839.57639,440.71221)"
     id="use4827" /><use
     x="0"
     y="0"
     inkscape:tiled-clone-of="#g3725"
     xlink:href="#g3725"
     transform="translate(839.57639,528.85465)"
     id="use4829" /><use
     x="0"
     y="0"
     inkscape:tiled-clone-of="#g3725"
     xlink:href="#g3725"
     transform="translate(839.57639,616.99709)"
     id="use4831" /><use
     x="0"
     y="0"
     inkscape:tiled-clone-of="#g3725"
     xlink:href="#g3725"
     transform="translate(839.57639,705.13953)"
     id="use4833" /><use
     x="0"
     y="0"
     inkscape:tiled-clone-of="#g3725"
     xlink:href="#g3725"
     transform="translate(839.57639,793.28197)"
     id="use4835" /><use
     x="0"
     y="0"
     inkscape:tiled-clone-of="#g3725"
     xlink:href="#g3725"
     transform="translate(839.57639,881.42441)"
     id="use4837" /><use
     x="0"
     y="0"
     inkscape:tiled-clone-of="#g3725"
     xlink:href="#g3725"
     transform="translate(839.57639,969.56685)"
     id="use4839" /><use
     x="0"
     y="0"
     inkscape:tiled-clone-of="#g3725"
     xlink:href="#g3725"
     transform="translate(839.57639,1057.7093)"
     id="use4841" /><use
     x="0"
     y="0"
     inkscape:tiled-clone-of="#g3725"
     xlink:href="#g3725"
     transform="translate(839.57639,1145.8517)"
     id="use4843" /><use
     x="0"
     y="0"
     inkscape:tiled-clone-of="#g3725"
     xlink:href="#g3725"
     transform="translate(839.57639,1233.9942)"
     id="use4845" /><use
     x="0"
     y="0"
     inkscape:tiled-clone-of="#g3725"
     xlink:href="#g3725"
     transform="translate(1119.4352)"
     id="use4847" /><use
     x="0"
     y="0"
     inkscape:tiled-clone-of="#g3725"
     xlink:href="#g3725"
     transform="translate(1119.4352,88.142441)"
     id="use4849" /><use
     x="0"
     y="0"
     inkscape:tiled-clone-of="#g3725"
     xlink:href="#g3725"
     transform="translate(1119.4352,176.28488)"
     id="use4851" /><use
     x="0"
     y="0"
     inkscape:tiled-clone-of="#g3725"
     xlink:href="#g3725"
     transform="translate(1119.4352,264.42732)"
     id="use4853" /><use
     x="0"
     y="0"
     inkscape:tiled-clone-of="#g3725"
     xlink:href="#g3725"
     transform="translate(1119.4352,352.56976)"
     id="use4855" /><use
     x="0"
     y="0"
     inkscape:tiled-clone-of="#g3725"
     xlink:href="#g3725"
     transform="translate(1119.4352,440.71221)"
     id="use4857" /><use
     x="0"
     y="0"
     inkscape:tiled-clone-of="#g3725"
     xlink:href="#g3725"
     transform="translate(1119.4352,528.85465)"
     id="use4859" /><use
     x="0"
     y="0"
     inkscape:tiled-clone-of="#g3725"
     xlink:href="#g3725"
     transform="translate(1119.4352,616.99709)"
     id="use4861" /><use
     x="0"
     y="0"
     inkscape:tiled-clone-of="#g3725"
     xlink:href="#g3725"
     transform="translate(1119.4352,705.13953)"
     id="use4863" /><use
     x="0"
     y="0"
     inkscape:tiled-clone-of="#g3725"
     xlink:href="#g3725"
     transform="translate(1119.4352,793.28197)"
     id="use4865" /><use
     x="0"
     y="0"
     inkscape:tiled-clone-of="#g3725"
     xlink:href="#g3725"
     transform="translate(1119.4352,881.42441)"
     id="use4867" /><use
     x="0"
     y="0"
     inkscape:tiled-clone-of="#g3725"
     xlink:href="#g3725"
     transform="translate(1119.4352,969.56685)"
     id="use4869" /><use
     x="0"
     y="0"
     inkscape:tiled-clone-of="#g3725"
     xlink:href="#g3725"
     transform="translate(1119.4352,1057.7093)"
     id="use4871" /><use
     x="0"
     y="0"
     inkscape:tiled-clone-of="#g3725"
     xlink:href="#g3725"
     transform="translate(1119.4352,1145.8517)"
     id="use4873" /><use
     x="0"
     y="0"
     inkscape:tiled-clone-of="#g3725"
     xlink:href="#g3725"
     transform="translate(1119.4352,1233.9942)"
     id="use4875" /><use
     x="0"
     y="0"
     inkscape:tiled-clone-of="#g3725"
     xlink:href="#g3725"
     transform="translate(1399.294)"
     id="use4877" /><use
     x="0"
     y="0"
     inkscape:tiled-clone-of="#g3725"
     xlink:href="#g3725"
     transform="translate(1399.294,88.142441)"
     id="use4879" /><use
     x="0"
     y="0"
     inkscape:tiled-clone-of="#g3725"
     xlink:href="#g3725"
     transform="translate(1399.294,176.28488)"
     id="use4881" /><use
     x="0"
     y="0"
     inkscape:tiled-clone-of="#g3725"
     xlink:href="#g3725"
     transform="translate(1399.294,264.42732)"
     id="use4883" /><use
     x="0"
     y="0"
     inkscape:tiled-clone-of="#g3725"
     xlink:href="#g3725"
     transform="translate(1399.294,352.56976)"
     id="use4885" /><use
     x="0"
     y="0"
     inkscape:tiled-clone-of="#g3725"
     xlink:href="#g3725"
     transform="translate(1399.294,440.71221)"
     id="use4887" /><use
     x="0"
     y="0"
     inkscape:tiled-clone-of="#g3725"
     xlink:href="#g3725"
     transform="translate(1399.294,528.85465)"
     id="use4889" /><use
     x="0"
     y="0"
     inkscape:tiled-clone-of="#g3725"
     xlink:href="#g3725"
     transform="translate(1399.294,616.99709)"
     id="use4891" /><use
     x="0"
     y="0"
     inkscape:tiled-clone-of="#g3725"
     xlink:href="#g3725"
     transform="translate(1399.294,705.13953)"
     id="use4893" /><use
     x="0"
     y="0"
     inkscape:tiled-clone-of="#g3725"
     xlink:href="#g3725"
     transform="translate(1399.294,793.28197)"
     id="use4895" /><use
     x="0"
     y="0"
     inkscape:tiled-clone-of="#g3725"
     xlink:href="#g3725"
     transform="translate(1399.294,881.42441)"
     id="use4897" /><use
     x="0"
     y="0"
     inkscape:tiled-clone-of="#g3725"
     xlink:href="#g3725"
     transform="translate(1399.294,969.56685)"
     id="use4899" /><use
     x="0"
     y="0"
     inkscape:tiled-clone-of="#g3725"
     xlink:href="#g3725"
     transform="translate(1399.294,1057.7093)"
     id="use4901" /><use
     x="0"
     y="0"
     inkscape:tiled-clone-of="#g3725"
     xlink:href="#g3725"
     transform="translate(1399.294,1145.8517)"
     id="use4903" /><use
     x="0"
     y="0"
     inkscape:tiled-clone-of="#g3725"
     xlink:href="#g3725"
     transform="translate(1399.294,1233.9942)"
     id="use4905" /><use
     x="0"
     y="0"
     inkscape:tiled-clone-of="#g3725"
     xlink:href="#g3725"
     transform="translate(1679.1528)"
     id="use4907" /><use
     x="0"
     y="0"
     inkscape:tiled-clone-of="#g3725"
     xlink:href="#g3725"
     transform="translate(1679.1528,88.142441)"
     id="use4909" /><use
     x="0"
     y="0"
     inkscape:tiled-clone-of="#g3725"
     xlink:href="#g3725"
     transform="translate(1679.1528,176.28488)"
     id="use4911" /><use
     x="0"
     y="0"
     inkscape:tiled-clone-of="#g3725"
     xlink:href="#g3725"
     transform="translate(1679.1528,264.42732)"
     id="use4913" /><use
     x="0"
     y="0"
     inkscape:tiled-clone-of="#g3725"
     xlink:href="#g3725"
     transform="translate(1679.1528,352.56976)"
     id="use4915" /><use
     x="0"
     y="0"
     inkscape:tiled-clone-of="#g3725"
     xlink:href="#g3725"
     transform="translate(1679.1528,440.71221)"
     id="use4917" /><use
     x="0"
     y="0"
     inkscape:tiled-clone-of="#g3725"
     xlink:href="#g3725"
     transform="translate(1679.1528,528.85465)"
     id="use4919" /><use
     x="0"
     y="0"
     inkscape:tiled-clone-of="#g3725"
     xlink:href="#g3725"
     transform="translate(1679.1528,616.99709)"
     id="use4921" /><use
     x="0"
     y="0"
     inkscape:tiled-clone-of="#g3725"
     xlink:href="#g3725"
     transform="translate(1679.1528,705.13953)"
     id="use4923" /><use
     x="0"
     y="0"
     inkscape:tiled-clone-of="#g3725"
     xlink:href="#g3725"
     transform="translate(1679.1528,793.28197)"
     id="use4925" /><use
     x="0"
     y="0"
     inkscape:tiled-clone-of="#g3725"
     xlink:href="#g3725"
     transform="translate(1679.1528,881.42441)"
     id="use4927" /><use
     x="0"
     y="0"
     inkscape:tiled-clone-of="#g3725"
     xlink:href="#g3725"
     transform="translate(1679.1528,969.56685)"
     id="use4929" /><use
     x="0"
     y="0"
     inkscape:tiled-clone-of="#g3725"
     xlink:href="#g3725"
     transform="translate(1679.1528,1057.7093)"
     id="use4931" /><use
     x="0"
     y="0"
     inkscape:tiled-clone-of="#g3725"
     xlink:href="#g3725"
     transform="translate(1679.1528,1145.8517)"
     id="use4933" /><use
     x="0"
     y="0"
     inkscape:tiled-clone-of="#g3725"
     xlink:href="#g3725"
     transform="translate(1679.1528,1233.9942)"
     id="use4935" /></svg>